<svg xmlns="http://www.w3.org/2000/svg" width="650.83" height="77.716" viewBox="0 0 650.83 77.716">
  <path id="パス_1" data-name="パス 1" d="M20.7-91.84q.205,3.28.718,8.1T22.55-73.7q.615,5.227,1.333,10.352t1.333,9.43l5.535-11.07q3.28-6.56,6.867-12.608A64.064,64.064,0,0,1,45-87.842q3.792-4.2,6.867-4.2,3.28,0,6.048,3.177A31.393,31.393,0,0,1,62.73-81.18a76.116,76.116,0,0,1,3.588,9.635q1.538,5.125,2.562,9.02.82-2.665,2.153-6.048t2.87-6.97a75.3,75.3,0,0,1,3.485-7.073,38.763,38.763,0,0,1,4.2-6.15,17.223,17.223,0,0,1,5.74-4.2A13.124,13.124,0,0,1,91.84-94.3a11.3,11.3,0,0,1,4.407,1.128,31.581,31.581,0,0,1,5.228,2.973,30.167,30.167,0,0,1,5.023,4.407,25.915,25.915,0,0,1,3.792,5.228,59.206,59.206,0,0,1,4.613,12.1,104.414,104.414,0,0,1,2.563,12.505q.82,5.945,1.127,10.558t.513,6.457a9.967,9.967,0,0,1-.615,4,4.624,4.624,0,0,1-2.255,2.153,6.62,6.62,0,0,1-3.895.717,4.95,4.95,0,0,1-2.665-1.333,8.115,8.115,0,0,1-1.64-2.357,10.841,10.841,0,0,1-.82-2.358q-.615-4.715-1.333-9.635T104.345-57.3q-.82-4.612-1.948-8.61a71.267,71.267,0,0,0-2.357-7.073,18.951,18.951,0,0,0-1.333-2.152,24.053,24.053,0,0,0-2.05-2.562,19.489,19.489,0,0,0-2.153-2.05A10.25,10.25,0,0,0,93.07-80.77q-2.05,0-4.305,3.792a60.309,60.309,0,0,0-4.305,9.122q-2.05,5.33-3.792,11.173T78.105-46.74q0,5.33-2.05,7.893T71.75-36.285a8.685,8.685,0,0,1-4.817-1.743,8.422,8.422,0,0,1-3.383-4q-1.23-3.28-2.665-7.38T57.912-57.81q-1.537-4.3-3.075-8.405T51.865-73.6a98.97,98.97,0,0,0-5.637,8.61Q43.46-60.27,40.9-55.35t-4.92,9.738Q33.62-40.8,31.57-37.1a26.815,26.815,0,0,1-3.075,4A5.172,5.172,0,0,1,24.6-31.365,5.587,5.587,0,0,1,21.115-32.9a20.891,20.891,0,0,1-3.485-3.792,30.588,30.588,0,0,1-2.973-5.125,27.112,27.112,0,0,1-1.948-5.74q-1.64-8.815-2.767-19.373T7.79-87.535a15.453,15.453,0,0,1,.922-6.458,6.486,6.486,0,0,1,4.408-4q3.485-.615,5.33,1.025A7.809,7.809,0,0,1,20.7-91.84ZM153.34-86.305q-1.23,5.535-2.46,12.2t-1.743,12.813a59.724,59.724,0,0,0,0,11.07q.512,4.92,2.563,6.97,3.485.615,8-2.973a53.673,53.673,0,0,0,8.815-9.123,86.051,86.051,0,0,0,7.79-11.992,60.1,60.1,0,0,0,4.92-11.378q.82-2.46,1.435-5.125a24.539,24.539,0,0,0,.615-5.535q0-1.64,2.152-3.178A8.889,8.889,0,0,1,189.01-94.3a3.855,3.855,0,0,1,2.357.41,8.529,8.529,0,0,1,2.46,1.743,13.743,13.743,0,0,1,2.05,2.665,6.1,6.1,0,0,1,.922,3.178q.41,6.15,1.23,13.53t1.948,14.76q1.127,7.38,2.357,14.35t2.46,12.505q.615,2.255-1.23,5.125a7.469,7.469,0,0,1-4.1,3.485,6.15,6.15,0,0,1-3.792-.41,5.689,5.689,0,0,1-2.972-3.28,59.073,59.073,0,0,1-1.948-7.072q-.923-4.2-1.64-8.815t-1.333-8.815q-.615-4.2-.82-7.072a100.057,100.057,0,0,1-7.278,11.173,81.977,81.977,0,0,1-9.02,10.25,40.156,40.156,0,0,1-10.045,7.175,19.2,19.2,0,0,1-10.762,1.947q-8.2-1.025-12.5-15.375a43.815,43.815,0,0,1-1.538-12.71,116.737,116.737,0,0,1,1.025-13.838q.923-6.867,2.255-13.018t2.357-10.045a6.756,6.756,0,0,1,1.64-2.972,2.768,2.768,0,0,1,2.87-.923,9.955,9.955,0,0,1,5.638,3.69A6.945,6.945,0,0,1,153.34-86.305Zm78.72-5.535q.205,3.28.717,8.1T233.9-73.7q.615,5.227,1.332,10.352t1.333,9.43l5.535-11.07q3.28-6.56,6.868-12.608a64.063,64.063,0,0,1,7.38-10.25q3.792-4.2,6.867-4.2,3.28,0,6.047,3.177a31.394,31.394,0,0,1,4.818,7.688,76.115,76.115,0,0,1,3.587,9.635q1.537,5.125,2.563,9.02.82-2.665,2.153-6.048t2.87-6.97a75.291,75.291,0,0,1,3.485-7.073,38.764,38.764,0,0,1,4.2-6.15,17.223,17.223,0,0,1,5.74-4.2A13.124,13.124,0,0,1,303.2-94.3a11.3,11.3,0,0,1,4.407,1.128A31.582,31.582,0,0,1,312.83-90.2a30.168,30.168,0,0,1,5.023,4.407,25.915,25.915,0,0,1,3.792,5.228,59.206,59.206,0,0,1,4.613,12.1,104.415,104.415,0,0,1,2.563,12.505q.82,5.945,1.127,10.558t.513,6.457a9.967,9.967,0,0,1-.615,4A4.624,4.624,0,0,1,327.59-32.8a6.62,6.62,0,0,1-3.895.717,4.949,4.949,0,0,1-2.665-1.333,8.116,8.116,0,0,1-1.64-2.357,10.84,10.84,0,0,1-.82-2.358q-.615-4.715-1.333-9.635T315.7-57.3q-.82-4.612-1.948-8.61a71.266,71.266,0,0,0-2.358-7.073,18.952,18.952,0,0,0-1.332-2.152,24.058,24.058,0,0,0-2.05-2.562,19.488,19.488,0,0,0-2.153-2.05,10.249,10.249,0,0,0-1.435-1.025q-2.05,0-4.3,3.792a60.31,60.31,0,0,0-4.3,9.122q-2.05,5.33-3.793,11.173T289.46-46.74q0,5.33-2.05,7.893T283.1-36.285a8.685,8.685,0,0,1-4.817-1.743,8.422,8.422,0,0,1-3.383-4q-1.23-3.28-2.665-7.38t-2.973-8.405q-1.537-4.3-3.075-8.405T263.22-73.6a98.972,98.972,0,0,0-5.638,8.61q-2.767,4.715-5.33,9.635t-4.92,9.738q-2.357,4.817-4.408,8.507a26.814,26.814,0,0,1-3.075,4,5.172,5.172,0,0,1-3.895,1.743A5.587,5.587,0,0,1,232.47-32.9a20.892,20.892,0,0,1-3.485-3.792,30.587,30.587,0,0,1-2.973-5.125,27.111,27.111,0,0,1-1.947-5.74q-1.64-8.815-2.768-19.373t-2.153-20.6a15.454,15.454,0,0,1,.923-6.458,6.486,6.486,0,0,1,4.408-4q3.485-.615,5.33,1.025A7.809,7.809,0,0,1,232.06-91.84ZM364.7-86.305q-1.23,5.535-2.46,12.2t-1.743,12.813a59.726,59.726,0,0,0,0,11.07q.513,4.92,2.563,6.97,3.485.615,8-2.973a53.673,53.673,0,0,0,8.815-9.123,86.049,86.049,0,0,0,7.79-11.992,60.1,60.1,0,0,0,4.92-11.378q.82-2.46,1.435-5.125a24.539,24.539,0,0,0,.615-5.535q0-1.64,2.152-3.178a8.889,8.889,0,0,1,3.587-1.743,3.855,3.855,0,0,1,2.358.41,8.53,8.53,0,0,1,2.46,1.743,13.743,13.743,0,0,1,2.05,2.665,6.1,6.1,0,0,1,.922,3.178q.41,6.15,1.23,13.53t1.948,14.76q1.128,7.38,2.357,14.35t2.46,12.505q.615,2.255-1.23,5.125a7.469,7.469,0,0,1-4.1,3.485,6.15,6.15,0,0,1-3.793-.41,5.689,5.689,0,0,1-2.973-3.28,59.074,59.074,0,0,1-1.947-7.072q-.923-4.2-1.64-8.815t-1.332-8.815q-.615-4.2-.82-7.072a100.059,100.059,0,0,1-7.277,11.173,81.978,81.978,0,0,1-9.02,10.25,40.155,40.155,0,0,1-10.045,7.175A19.2,19.2,0,0,1,361.21-27.47q-8.2-1.025-12.5-15.375a43.815,43.815,0,0,1-1.538-12.71,116.734,116.734,0,0,1,1.025-13.838q.922-6.867,2.255-13.018T352.8-92.455a6.756,6.756,0,0,1,1.64-2.972,2.768,2.768,0,0,1,2.87-.923,9.955,9.955,0,0,1,5.638,3.69A6.945,6.945,0,0,1,364.7-86.305Zm78.72-5.535q.205,3.28.718,8.1T445.26-73.7q.615,5.227,1.333,10.352t1.332,9.43l5.535-11.07q3.28-6.56,6.867-12.608a64.062,64.062,0,0,1,7.38-10.25q3.793-4.2,6.867-4.2,3.28,0,6.048,3.177a31.394,31.394,0,0,1,4.818,7.688,76.115,76.115,0,0,1,3.587,9.635q1.537,5.125,2.563,9.02.82-2.665,2.152-6.048t2.87-6.97a75.3,75.3,0,0,1,3.485-7.073,38.764,38.764,0,0,1,4.2-6.15,17.224,17.224,0,0,1,5.74-4.2,13.124,13.124,0,0,1,4.51-1.333,11.3,11.3,0,0,1,4.408,1.128,31.583,31.583,0,0,1,5.227,2.973,30.169,30.169,0,0,1,5.023,4.407A25.915,25.915,0,0,1,533-80.565a59.206,59.206,0,0,1,4.612,12.1,104.415,104.415,0,0,1,2.563,12.505Q541-50.02,541.3-45.407t.513,6.457a9.968,9.968,0,0,1-.615,4,4.624,4.624,0,0,1-2.255,2.153,6.62,6.62,0,0,1-3.9.717,4.949,4.949,0,0,1-2.665-1.333,8.115,8.115,0,0,1-1.64-2.357,10.842,10.842,0,0,1-.82-2.358q-.615-4.715-1.333-9.635T527.055-57.3q-.82-4.612-1.948-8.61a71.259,71.259,0,0,0-2.357-7.073,18.958,18.958,0,0,0-1.333-2.152,24.054,24.054,0,0,0-2.05-2.562,19.486,19.486,0,0,0-2.153-2.05,10.246,10.246,0,0,0-1.435-1.025q-2.05,0-4.3,3.792a60.31,60.31,0,0,0-4.3,9.122q-2.05,5.33-3.792,11.173t-2.562,9.942q0,5.33-2.05,7.893t-4.3,2.563a8.685,8.685,0,0,1-4.818-1.743,8.422,8.422,0,0,1-3.383-4q-1.23-3.28-2.665-7.38t-2.973-8.405q-1.537-4.3-3.075-8.405t-2.973-7.38a98.972,98.972,0,0,0-5.637,8.61q-2.768,4.715-5.33,9.635t-4.92,9.738Q456.33-40.8,454.28-37.1a26.813,26.813,0,0,1-3.075,4,5.172,5.172,0,0,1-3.895,1.743,5.587,5.587,0,0,1-3.485-1.538,20.891,20.891,0,0,1-3.485-3.792,30.586,30.586,0,0,1-2.973-5.125,27.112,27.112,0,0,1-1.948-5.74q-1.64-8.815-2.767-19.373t-2.152-20.6a15.453,15.453,0,0,1,.922-6.458,6.486,6.486,0,0,1,4.408-4q3.485-.615,5.33,1.025A7.809,7.809,0,0,1,443.415-91.84ZM576.05-86.305q-1.23,5.535-2.46,12.2t-1.742,12.813a59.721,59.721,0,0,0,0,11.07q.512,4.92,2.563,6.97,3.485.615,7.995-2.973a53.673,53.673,0,0,0,8.815-9.123,86.048,86.048,0,0,0,7.79-11.992,60.106,60.106,0,0,0,4.92-11.378q.82-2.46,1.435-5.125a24.538,24.538,0,0,0,.615-5.535q0-1.64,2.152-3.178A8.889,8.889,0,0,1,611.72-94.3a3.855,3.855,0,0,1,2.357.41,8.529,8.529,0,0,1,2.46,1.743,13.743,13.743,0,0,1,2.05,2.665,6.1,6.1,0,0,1,.922,3.178q.41,6.15,1.23,13.53t1.948,14.76q1.127,7.38,2.358,14.35t2.46,12.505q.615,2.255-1.23,5.125a7.469,7.469,0,0,1-4.1,3.485,6.15,6.15,0,0,1-3.792-.41,5.689,5.689,0,0,1-2.972-3.28,59.067,59.067,0,0,1-1.948-7.072q-.922-4.2-1.64-8.815t-1.333-8.815q-.615-4.2-.82-7.072a100.051,100.051,0,0,1-7.278,11.173,81.979,81.979,0,0,1-9.02,10.25,40.156,40.156,0,0,1-10.045,7.175,19.2,19.2,0,0,1-10.763,1.947q-8.2-1.025-12.505-15.375a43.817,43.817,0,0,1-1.537-12.71,116.734,116.734,0,0,1,1.025-13.838q.923-6.867,2.255-13.018t2.358-10.045a6.756,6.756,0,0,1,1.64-2.972,2.768,2.768,0,0,1,2.87-.923,9.954,9.954,0,0,1,5.637,3.69A6.945,6.945,0,0,1,576.05-86.305Zm82.41,57.4q1.025,7.38-6.15,8.405a6.87,6.87,0,0,1-6.047-2.05,11.2,11.2,0,0,1-2.973-5.945,14.98,14.98,0,0,1,.513-7.175,5.1,5.1,0,0,1,4.408-3.9,7.139,7.139,0,0,1,6.97,2.973A14.473,14.473,0,0,1,658.46-28.905Z" transform="translate(-7.758 98.158)"/>
</svg>
