<svg width="422" height="140" viewBox="0 0 422 140" fill="none" xmlns="http://www.w3.org/2000/svg">
<path d="M34.53 68.33L34.5 65.84V68.33H34.53Z" fill="black"/>
<path d="M118.72 134.33H111.27C107.1 134.33 103.72 130.95 103.72 126.78V71.76C103.72 61.76 100.75 54.48 94.83 49.9C88.9 45.33 81.22 43.04 71.79 43.04C70.88 43.04 70.01 43.07 69.14 43.12C56.85 44.09 50.66 51.67 49.69 52.97C51.63 51.44 53.7 50.12 55.93 49.04C60.07 47.04 64.43 46.04 69 46.04C74.57 46.04 78.68 47.83 81.32 51.4C83.96 54.97 85.28 59.54 85.28 65.12V126.78C85.28 130.95 81.9 134.33 77.73 134.33H70.28C69.45 134.33 68.78 135 68.78 135.83C68.78 136.66 69.45 137.33 70.28 137.33H118.71C119.54 137.33 120.21 136.66 120.21 135.83C120.21 135 119.54 134.33 118.71 134.33H118.72Z" fill="black"/>
<path d="M34.5 68.33V60.51C34.5 52.17 27.74 45.4 19.39 45.4H1.5C0.67 45.4 0 46.07 0 46.9C0 47.73 0.67 48.4 1.5 48.4H5.17C11.43 48.4 16.5 53.47 16.5 59.73V126.77C16.5 130.94 13.12 134.32 8.95 134.32H1.5C0.67 134.32 0 134.99 0 135.82C0 136.65 0.67 137.32 1.5 137.32H49.93C50.76 137.32 51.43 136.65 51.43 135.82C51.43 134.99 50.76 134.32 49.93 134.32H42.48C38.31 134.32 34.93 130.94 34.93 126.77V117.87L34.52 68.32H34.5V68.33Z" fill="black"/>
<path d="M193.54 126.99C193.54 126.99 190.31 130.81 185.68 133.34C182.47 135.09 179.07 136.12 175.93 136.12C172.21 136.12 169.21 135.44 166.93 134.09C164.65 132.73 162.79 130.88 161.36 128.52C159.93 126.16 158.97 123.41 158.47 120.27C157.97 117.13 157.72 113.7 157.72 109.98V59.3C157.72 50.96 150.96 44.19 142.61 44.19H124.29C123.46 44.19 122.79 44.86 122.79 45.69C122.79 46.52 123.46 47.19 124.29 47.19H127.96C134.22 47.19 139.29 52.26 139.29 58.52V108.05C139.29 112.33 139.64 115.94 140.36 118.87C141.08 121.8 141.93 124.19 142.93 126.05C143.93 127.91 145.04 129.37 146.25 130.44C147.46 131.51 148.57 132.4 149.57 133.12C151.57 134.55 154.36 135.9 157.93 137.19C161.5 138.47 166.14 139.12 171.86 139.12C174.13 139.12 175.76 139.01 177.8 138.67C188.65 136.84 193.55 126.98 193.55 126.98L193.54 126.99Z" fill="black"/>
<path d="M238.07 133.13H234.4C228.14 133.13 223.07 128.06 223.07 121.8V59.31C223.07 50.97 216.31 44.2 207.96 44.2H189.85C189.02 44.2 188.35 44.87 188.35 45.7C188.35 46.53 189.02 47.2 189.85 47.2H193.31C199.57 47.2 204.64 52.27 204.64 58.53L205.19 121.28C205.23 123.34 205.58 125.4 206.43 127.27C208.81 132.49 214.06 136.12 220.17 136.12H238.06C238.89 136.12 239.56 135.45 239.56 134.62C239.56 133.79 238.89 133.12 238.06 133.12L238.07 133.13Z" fill="black"/>
<path d="M421.15 134.76C421.15 135.59 420.48 136.26 419.65 136.26H401.76C393.42 136.26 386.65 129.5 386.65 121.15L386.22 14.33C386.22 8.07002 381.15 3 374.89 3H371.22C370.39 3 369.72 2.33 369.72 1.5C369.72 0.67 370.39 0 371.22 0H389.54C397.88 0 404.65 6.75998 404.65 15.11V121.93C404.65 128.19 409.72 133.26 415.98 133.26H419.65C420.48 133.26 421.15 133.93 421.15 134.76ZM348.72 134.96C348.11 134.76 346.9 134.27 346.9 134.27C345.94 133.85 345.05 133.38 344.23 132.83C340.8 130.55 338.23 127.26 336.52 122.97C334.81 118.68 333.73 113.51 333.31 107.43C332.88 101.36 332.67 94.61 332.67 87.18C332.67 80.61 333.02 74.72 333.74 69.5C334.45 64.29 335.7 59.82 337.49 56.11C339.27 52.4 341.77 49.54 344.99 47.54C345.59 47.17 346.23 46.84 346.88 46.54C355.11 42.63 363.63 42.41 371 44.52C366.91 42.55 362.08 41.54 356.46 41.54C350.32 41.54 344.53 42.86 339.1 45.5C333.67 48.14 328.89 51.64 324.74 56C320.6 60.36 317.31 65.47 314.88 71.32C312.45 77.18 311.24 83.32 311.24 89.75C311.24 96.18 312.49 102.57 314.99 108.5C317.49 114.43 320.88 119.68 325.17 124.25C329.46 128.82 334.42 132.47 340.06 135.18C345.7 137.89 351.67 139.25 357.96 139.25C362.81 139.25 366.92 138.43 370.28 136.79C370.53 136.67 370.76 136.53 371.01 136.4C364.19 138.35 356.39 137.75 348.74 134.95L348.72 134.96Z" fill="black"/>
<path d="M276.95 44.2L263.14 44.26C261.85 44.26 261.35 45.94 262.42 46.64C267.92 50.24 272.81 55.88 275.75 61.89C276.25 62.9 277.66 62.9 278.15 61.89C281.09 55.87 285.98 50.24 291.48 46.64C292.56 45.93 292.05 44.26 290.76 44.26L276.95 44.2Z" fill="black"/>
<path d="M276.95 136.13L263.14 136.07C261.85 136.07 261.35 134.39 262.42 133.69C267.92 130.09 272.81 124.45 275.75 118.44C276.25 117.43 277.66 117.43 278.15 118.44C281.09 124.46 285.98 130.09 291.48 133.69C292.56 134.4 292.05 136.07 290.76 136.07L276.95 136.13Z" fill="black"/>
<path d="M180.01 0C179.63 0 179.3 0.249976 179.18 0.599976C175.78 10.31 169.44 15.87 163.89 18.98C162.33 19.85 163.13 22.24 164.89 21.96C175.38 20.26 190.21 15.32 196.69 1.15997C196.94 0.619973 196.53 0 195.93 0H180.01Z" fill="black"/>
</svg>
